<?xml version="1.0" encoding="utf-8"?>
<!-- Generator: Adobe Illustrator 16.0.0, SVG Export Plug-In . SVG Version: 6.00 Build 0)  -->
<!DOCTYPE svg PUBLIC "-//W3C//DTD SVG 1.1//EN" "http://www.w3.org/Graphics/SVG/1.1/DTD/svg11.dtd">
<svg version="1.1" id="Layer_1" xmlns="http://www.w3.org/2000/svg" xmlns:xlink="http://www.w3.org/1999/xlink" x="0px" y="0px"
	 width="496.02px" height="308.395px" viewBox="49.657 266.772 496.02 308.395"
	 enable-background="new 49.657 266.772 496.02 308.395" xml:space="preserve">
<title>Artboard 1</title>
<path fill="#c0aa6e" d="M265.003,476.992c-0.25-2.588-1.591-4.947-3.686-6.486c-0.288-0.281-0.644-0.484-1.032-0.59l12.235-45.107
	c1.146-4.45-0.853-9.112-4.864-11.352l-35.231-15.331c-0.442-0.294-1.916,3.538-4.57,11.056l-3.979,11.498l14.889,11.056
	l4.422-7.961l8.255,3.244l-6.78,24.912c-9.435-7.223-15.921-12.529-19.606-15.773c-2.693-2.574-5.205-5.332-7.518-8.254
	c-2.317-2.752-4.297-5.771-5.896-8.993l19.163-74.295c0.528-2.536,0.053-5.178-1.326-7.371
	c-6.486-9.876-15.921-18.721-28.598-26.534c-9.919-5.893-20.325-10.923-31.104-15.036c-0.295-0.147-0.59,0.442-0.885,1.769
	c-0.17,0.626-0.269,1.269-0.295,1.917c5.308,3.096,12.53,9.876,21.817,20.048c7.379,7.916,14.131,16.393,20.195,25.355
	l-18.972,72.969c-0.271,1.771-0.17,3.577,0.295,5.307c1.994,5.225,4.725,10.139,8.107,14.594c3.485,4.709,7.383,9.1,11.646,13.119
	c4.128,3.834,11.94,10.023,23.144,18.723c1.294,0.992,2.813,1.65,4.423,1.916l-7.96,29.629v0.295
	c-2.792,12.727-10.063,24.027-20.491,31.842c-10.613,7.959-26.534,11.645-47.761,11.055c0.655,0.646,1.202,1.393,1.621,2.213
	c0.219,0.688,0.627,1.301,1.18,1.768c8.845,3.436,18.227,5.281,27.713,5.455c9.151,0.279,18.226-1.748,26.387-5.896
	c14.741-7.813,24.618-20.344,29.63-37.443l9.287,64.271c-0.021,0.209,0.03,0.418,0.147,0.59h19.459c0.147-1.025,0.147-2.068,0-3.096
	L265.003,476.992z"/>
<path fill="#c0aa6e" d="M543.17,371.886l-86.089-100.624c-0.919-1.163-2.075-2.118-3.391-2.801c-1.293-0.618-2.696-0.969-4.128-1.032
	c-3.391,0-7.813-0.147-13.119-0.442c-28.574-1.187-57.119,2.962-84.173,12.235l-7.518,2.948c-1.681,0.716-3.307,1.554-4.865,2.506
	c-1.474-0.67-3.003-1.213-4.569-1.622l-8.402-2.064c-9.272-1.863-18.699-2.85-28.156-2.948h-2.461
	c-9.461,0.025-18.896,1.013-28.156,2.948l-8.402,1.917c-1.554,0.451-3.079,0.993-4.57,1.622c-1.474-0.884-3.242-1.622-4.864-2.506
	l-7.518-2.948c-27.012-9.225-55.509-13.324-84.025-12.087c-5.307,0.294-9.729,0.442-13.12,0.442
	c-1.444-0.044-2.873,0.313-4.127,1.032c-1.391,0.63-2.605,1.592-3.538,2.801L51.889,371.945c-1.305,1.646-2.076,3.652-2.211,5.749
	c-0.147,2.161,0.479,4.304,1.769,6.044l44.666,66.189c0.765,1.229,1.83,2.244,3.096,2.947l90.069,54.984
	c1.587,0.998,3.432,1.51,5.307,1.475c1.815-0.055,3.589-0.563,5.159-1.475c1.593-1.002,2.87-2.432,3.686-4.127l15.036-30.662
	l-14.594-15.33l-13.563,27.566l-78.865-48.205L72.04,378.874l78.571-91.396c0.441,0,2.063,0,5.012-0.147
	c3.243-0.295,6.486-0.59,9.729-0.737c27.101-1.655,54.191,3.409,78.865,14.741c2.063,0.982,3.98,2.015,5.749,3.095
	c1.378,0.861,2.948,1.368,4.569,1.474c1.614,0.006,3.215-0.294,4.718-0.884l1.031-0.442c11.234-3.358,22.801-5.483,34.495-6.338
	l3.242-0.295l3.243,0.295c11.686,0.927,23.244,3.051,34.495,6.338l1.031,0.442c1.503,0.59,3.104,0.891,4.718,0.884
	c1.63-0.061,3.211-0.57,4.569-1.474c1.77-0.982,3.686-2.014,5.749-3.095c24.674-11.333,51.765-16.396,78.866-14.741
	c3.243,0.294,6.485,0.442,9.729,0.737c2.948,0.147,4.57,0.147,5.013,0.147l78.57,91.396l-40.096,58.081l-78.866,48.203
	l-13.562-27.566l-14.594,15.332l15.036,30.66c0.811,1.699,2.089,3.131,3.685,4.129c1.526,1.014,3.329,1.529,5.16,1.473
	c1.874,0.037,3.719-0.475,5.307-1.473l90.068-54.984c1.203-0.787,2.252-1.785,3.096-2.949l44.666-66.041
	c1.18-1.793,1.796-3.898,1.77-6.044C545.38,375.567,544.514,373.561,543.17,371.886z"/>
<path fill="#c0aa6e" d="M383.964,533.156c-10.456-7.787-17.735-19.1-20.49-31.842v-0.295l-7.96-29.482c1.609-0.264,3.129-0.924,4.423-1.916
	c11.351-8.697,19.016-14.889,23.144-18.721c4.263-4.02,8.16-8.41,11.646-13.121c3.407-4.438,6.14-9.355,8.107-14.594
	c0.465-1.729,0.565-3.536,0.295-5.306l-19.164-73.117c6.162-8.93,12.961-17.404,20.344-25.355
	c9.14-10.171,16.51-16.952,21.816-20.048c-0.147-0.737-0.147-1.327-0.295-1.917c-0.295-1.179-0.59-1.769-0.884-1.769
	c-10.779,4.113-21.186,9.144-31.104,15.036c-12.678,7.813-22.111,16.658-28.598,26.534c-1.449,2.166-1.93,4.836-1.327,7.371
	l19.164,74.295c-1.564,3.243-3.547,6.265-5.896,8.993c-2.351,2.889-4.86,5.645-7.519,8.254c-3.686,3.244-10.171,8.551-19.605,15.773
	l-6.781-24.912l8.255-3.244l4.423,7.961l14.889-11.056c-1.18-3.833-2.506-7.666-3.98-11.498c-2.653-7.666-4.127-11.351-4.569-11.056
	l-35.231,15.331c-4.012,2.239-6.01,6.901-4.865,11.352l12.235,45.107c-0.325,0.229-0.67,0.426-1.031,0.59
	c-2.039,1.588-3.365,3.922-3.686,6.486l-13.268,94.785c-0.147,1.027-0.147,2.07,0,3.096h19.459c0-0.146,0.147-0.441,0.147-0.59
	l9.286-64.271c5.013,17.1,14.889,29.631,29.63,37.443c8.162,4.148,17.236,6.176,26.388,5.896c9.492-0.115,18.885-1.963,27.713-5.455
	c0.552-0.467,0.961-1.08,1.18-1.768c0.438-0.803,1-1.529,1.666-2.152C410.498,544.8,394.431,541.115,383.964,533.156z"/>
</svg>
